<svg xmlns="http://www.w3.org/2000/svg" xmlns:xlink="http://www.w3.org/1999/xlink" viewBox="0,0,256,256" width="48px" height="48px" fill-rule="nonzero"><g fill="#dddddd" fill-rule="nonzero" stroke="none" stroke-width="1" stroke-linecap="butt" stroke-linejoin="miter" stroke-miterlimit="10" stroke-dasharray="" stroke-dashoffset="0" font-family="none" font-weight="none" font-size="none" text-anchor="none" style="mix-blend-mode: normal"><path d="M0,256v-256h256v256z" id="bgRectangle"></path></g><g fill="none" fill-rule="nonzero" stroke="none" stroke-width="1" stroke-linecap="butt" stroke-linejoin="miter" stroke-miterlimit="10" stroke-dasharray="" stroke-dashoffset="0" font-family="none" font-weight="none" font-size="none" text-anchor="none" style="mix-blend-mode: normal"><g transform="scale(6.4,6.4)"><g><path d="M20,0c-11.04569,0 -20,8.95431 -20,20c0,11.04569 8.95431,20 20,20c11.04569,0 20,-8.95431 20,-20c0,-11.04569 -8.95431,-20 -20,-20z" fill="#f7f9f9"></path><path d="M27.933,16.933c0,4.38127 -3.55173,7.933 -7.933,7.933c-4.38127,0 -7.933,-3.55173 -7.933,-7.933c0,-4.38127 3.55173,-7.933 7.933,-7.933c2.10404,-0.00027 4.12199,0.83545 5.60977,2.32323c1.48778,1.48778 2.32349,3.50573 2.32323,5.60977" fill="#00ff00"></path><path d="M20,28.267c-5.25129,-0.03355 -10.22458,2.35661 -13.479,6.478c7.62013,7.00677 19.33787,7.00677 26.958,0c-3.25442,-4.12139 -8.22771,-6.51155 -13.479,-6.478z" fill="#00ff00"></path></g></g></g></svg>